<svg xmlns="http://www.w3.org/2000/svg" width="42.678" height="55.269" viewBox="0 0 42.678 55.269" fill="none">
  <path d="M 6.49 0.899 C 8.311 -1.314 9.468 1.066 10.334 2.597 C 14.143 8.085 18.278 14.593 21.876 20.246 C 21.271 21.131 20.838 21.816 20.295 22.738 C 20.866 23.615 21.464 24.648 22.786 23.909 C 23.007 23.785 23.589 23.261 23.681 23.033 C 25.006 25.068 26.678 27.787 28.093 29.682 L 28.057 29.822 C 28.685 30.281 29.442 31.769 29.884 32.508 L 29.984 32.511 C 30.221 33.228 32.436 36.498 32.949 37.289 L 39.689 47.661 C 40.093 48.284 42.399 51.99 42.678 52.321 C 41.71 53.038 40.79 54.31 40.071 55.269 C 39.898 54.561 36.404 49.479 35.78 48.519 L 24.615 31.325 C 22.451 28.028 19.665 24.056 17.68 20.707 C 15.431 20.433 5.44 21.696 3.012 22.204 L 2.97 22.294 C 1.378 22.138 1.388 21.931 0 21.288 L 0.428 19.729 C 0.571 19.285 0.765 18.48 0.917 18.102 C 2.535 14.072 4.025 3.869 6.49 0.899 Z" fill="rgb(102,101,102)" fill-rule="nonzero"></path>
</svg>