<svg xmlns="http://www.w3.org/2000/svg" width="59.918" height="47.025" viewBox="0 0 59.918 47.025" fill="none">
  <path d="M 14.813 11.117 C 16.22 8.063 18.284 4.562 19.927 1.584 C 20.483 0.574 21.618 -0.284 22.858 0.089 L 23.012 0.139 C 23.706 0.609 24.238 1.099 24.77 1.744 C 36.159 15.528 47.534 29.326 58.967 43.075 C 59.623 43.866 60.373 44.837 59.569 45.903 C 59.1 46.528 58.466 46.883 57.692 47.025 C 56.448 46.852 51.193 39.93 50.2 38.715 L 39.851 26.138 L 28.021 11.835 C 26.04 9.439 23.632 6.668 21.777 4.215 C 21.366 5.175 17.729 12.246 17.128 13.107 C 16.634 14.104 16.239 14.932 15.634 15.873 C 13.71 19.592 11.728 23.28 9.69 26.937 L 9.59 26.934 C 9.147 26.195 8.391 24.707 7.762 24.248 L 7.798 24.109 C 6.384 22.213 4.711 19.495 3.387 17.459 C 3.294 17.687 2.712 18.211 2.491 18.335 C 1.169 19.075 0.571 18.041 0 17.164 C 0.543 16.243 0.976 15.557 1.582 14.672 C 2.89 12.281 4.303 9.337 5.83 7.144 C 8.332 3.551 13.024 9.343 14.813 11.117 Z" fill="rgb(82,81,82)" fill-rule="nonzero"></path>
</svg>