<svg xmlns="http://www.w3.org/2000/svg" width="23.769" height="131.225" viewBox="0 0 23.769 131.225" fill="none">
  <path d="M 0 1.784 C 0.43 0.552 1.478 -0.378 2.82 0.152 C 3.378 0.76 3.216 0.549 3.395 1.422 L 11.161 49.478 L 13.592 64.692 C 13.806 66.017 14.388 70.294 14.691 71.445 C 14.788 72.101 15.124 74.112 15.133 74.666 C 15.832 76.747 16.397 82.039 16.774 84.423 L 19.552 101.75 C 20.65 108.32 21.694 114.899 22.683 121.487 C 23.058 123.974 25.346 130.687 21.875 131.203 C 21.284 131.293 21.051 131.093 20.648 130.763 C 20.327 129.883 19.928 126.853 19.758 125.755 C 19.272 122.601 18.77 119.45 18.25 116.302 L 11.289 73.222 L 3.161 22.737 L 1.039 9.444 C 0.73 7.503 0.03 3.642 0 1.784 Z" fill="rgb(82,81,82)" fill-rule="nonzero"></path>
</svg>