<svg xmlns="http://www.w3.org/2000/svg" width="53.222" height="133.736" viewBox="0 0 53.222 133.736" fill="none">
  <path d="M 28.506 1.984 C 29.266 0.24 30.996 -1.142 31.949 1.377 C 32.061 3.607 33.234 9.751 33.64 12.191 L 37.256 34.093 L 48.032 99.933 L 51.496 121.03 C 52.028 124.268 52.827 128.367 53.222 131.544 C 52.36 133.97 50.161 134.965 49.637 131.442 C 47.205 118.142 45.338 104.468 43.004 91.13 C 42.211 86.597 41.595 82.01 40.724 77.491 C 37.898 78.203 33.704 78.925 30.752 79.523 L 10.421 83.641 C 8.705 83.989 1.771 85.204 0.442 85.716 C 0.434 85.162 0.098 83.152 0 82.496 C 2.071 81.697 7.688 80.828 10.132 80.314 L 40.18 74.266 C 40.114 72.763 39.536 69.761 39.269 68.168 L 37.639 58.34 L 31.421 20.331 L 29.52 8.892 C 29.2 6.975 28.612 3.855 28.506 1.984 Z" fill="rgb(82,81,82)" fill-rule="nonzero"></path>
</svg>