<svg xmlns="http://www.w3.org/2000/svg" width="9.665" height="34.369" viewBox="0 0 9.665 34.369" fill="none">
  <path d="M 6.247 33.413 C 5.511 30.841 5.386 28.232 4.88 25.625 C 4.408 23.192 -0.098 2.266 0.002 1.872 C 0.161 1.243 0.612 0.755 1.169 0.443 C 1.689 0.152 2.262 -0.115 2.858 0.052 C 3.977 1.066 5.1 9.861 5.621 11.819 C 5.819 12.564 5.782 13.821 6.12 14.762 L 6.243 14.923 C 6.848 15.919 8.449 16.092 8.936 16.669 C 8.437 17.553 7.328 19.243 7.192 20.13 L 7.478 20.162 L 7.544 20.346 C 7.523 21.469 9.018 29.919 9.373 30.942 C 9.466 31.512 9.611 32.273 9.665 32.83 C 8.946 33.531 8.301 34.33 7.283 34.369 C 6.724 34.155 6.575 34.077 6.247 33.413 Z" fill="rgb(102,101,102)" fill-rule="nonzero"></path>
</svg>