<svg xmlns="http://www.w3.org/2000/svg" width="20.190" height="22.294" viewBox="0 0 20.190 22.294" fill="none">
  <path d="M 6.49 0.899 C 8.311 -1.314 9.468 1.066 10.334 2.597 C 9.803 2.539 9.354 2.416 8.838 2.291 C 8.677 2.758 7.957 5.038 7.806 5.354 C 8.478 6.239 9.472 8.025 10.131 9.052 C 12.007 11.976 13.813 14.939 15.832 17.773 C 16.922 17.782 17.361 17.773 18.428 17.587 C 21.474 18.777 20.14 20.313 17.68 20.707 C 15.431 20.433 5.44 21.696 3.012 22.204 L 2.97 22.294 C 1.378 22.138 1.388 21.931 0 21.288 L 0.428 19.729 C 0.571 19.285 0.765 18.48 0.917 18.102 C 2.535 14.072 4.025 3.869 6.49 0.899 Z" fill="rgb(254,254,253)" fill-rule="nonzero"></path>
</svg>