<svg xmlns="http://www.w3.org/2000/svg" width="27.040" height="14.817" viewBox="0 0 27.040 14.817" fill="none">
  <path d="M 2.607 7.375 C 12.495 -3.118 10.423 -2.33 15.355 9.2 C 16.969 8.635 22.754 6.348 23.959 6.526 C 25.381 7.416 26.393 10.734 26.958 12.281 C 27.489 13.73 25.319 15.528 24.182 14.528 C 23.165 13.633 22.574 11.428 22.13 10.163 C 19.72 11.049 17.468 11.924 14.965 12.537 L 14.092 12.558 C 13.593 12.504 13.438 12.494 12.966 12.323 C 11.65 11.151 9.819 6.079 9.468 4.384 C 8.328 5.904 2.479 12.696 0.736 12.054 C 0.29 11.648 0.168 10.923 0 10.324 C 0.719 9.364 1.639 8.093 2.607 7.375 Z" fill="rgb(82,81,82)" fill-rule="nonzero"></path>
</svg>