<svg xmlns="http://www.w3.org/2000/svg" width="19.997" height="24.541" viewBox="0 0 19.997 24.541" fill="none">
  <path d="M 13.222 0.667 C 14.053 -0.055 14.974 -0.361 15.788 0.633 L 18.631 13.566 C 19.107 15.727 19.658 17.898 19.975 20.085 C 20.203 21.658 18.61 23.244 17.05 22.435 C 16.384 21.615 14.133 9.887 13.778 8.081 C 12.901 11.207 11.975 14.319 11.002 17.416 C 10.445 19.235 9.311 24.864 6.873 24.526 C 6.425 24.254 6.004 23.765 5.835 23.258 C 3.728 16.954 2.208 10.286 0.006 4.02 C -0.133 2.008 2.042 -0.028 3.258 1.851 C 4.563 6.026 6.886 13.143 7.654 17.221 C 8.74 14.132 11.851 2.365 13.222 0.667 Z" fill="rgb(82,81,82)" fill-rule="nonzero"></path>
</svg>