<svg xmlns="http://www.w3.org/2000/svg" width="15.001" height="11.999" viewBox="0 0 15.001 11.999" fill="none">
  <path d="M 15.538 3.093 C 16.004 2.797 16.141 2.178 15.845 1.713 C 15.548 1.247 14.93 1.11 14.464 1.406 L 15.001 2.25 L 15.538 3.093 Z M 8.257 6.545 L 8.76 7.409 L 8.777 7.399 L 8.795 7.388 L 8.257 6.545 Z M 7.504 6.747 L 7.504 5.747 L 7.504 6.747 Z M 6.751 6.545 L 6.214 7.388 L 6.231 7.399 L 6.248 7.409 L 6.751 6.545 Z M 0.537 1.406 C 0.071 1.11 -0.547 1.247 -0.844 1.713 C -1.14 2.179 -1.003 2.797 -0.537 3.093 L 0 2.25 L 0.537 1.406 Z M 15.001 2.25 L 14.464 1.406 L 7.72 5.701 L 8.257 6.545 L 8.795 7.388 L 15.538 3.093 L 15.001 2.25 Z M 8.257 6.545 L 7.755 5.68 C 7.679 5.724 7.592 5.747 7.504 5.747 L 7.504 6.747 L 7.504 7.747 C 7.945 7.747 8.378 7.631 8.76 7.409 L 8.257 6.545 Z M 7.504 6.747 L 7.504 5.747 C 7.416 5.747 7.329 5.724 7.253 5.68 L 6.751 6.545 L 6.248 7.409 C 6.63 7.631 7.063 7.747 7.504 7.747 L 7.504 6.747 Z M 6.751 6.545 L 7.287 5.701 L 0.537 1.406 L 0 2.25 L -0.537 3.093 L 6.214 7.388 L 6.751 6.545 Z M 1.5 0 L 1.5 1 L 13.501 1 L 13.501 0 L 13.501 -1 L 1.5 -1 L 1.5 0 Z M 13.501 0 L 13.501 1 C 13.777 1 14.001 1.224 14.001 1.5 L 15.001 1.5 L 16.001 1.5 C 16.001 0.119 14.882 -1 13.501 -1 L 13.501 0 Z M 15.001 1.5 L 14.001 1.5 L 14.001 10.499 L 15.001 10.499 L 16.001 10.499 L 16.001 1.5 L 15.001 1.5 Z M 15.001 10.499 L 14.001 10.499 C 14.001 10.775 13.777 10.999 13.501 10.999 L 13.501 11.999 L 13.501 12.999 C 14.882 12.999 16.001 11.88 16.001 10.499 L 15.001 10.499 Z M 13.501 11.999 L 13.501 10.999 L 1.5 10.999 L 1.5 11.999 L 1.5 12.999 L 13.501 12.999 L 13.501 11.999 Z M 1.5 11.999 L 1.5 10.999 C 1.224 10.999 1 10.775 1 10.499 L 0 10.499 L -1 10.499 C -1 11.88 0.12 12.999 1.5 12.999 L 1.5 11.999 Z M 0 10.499 L 1 10.499 L 1 1.5 L 0 1.5 L -1 1.5 L -1 10.499 L 0 10.499 Z M 0 1.5 L 1 1.5 C 1 1.224 1.224 1 1.5 1 L 1.5 0 L 1.5 -1 C 0.12 -1 -1 0.119 -1 1.5 L 0 1.5 Z" fill="rgb(18,103,233)" fill-rule="nonzero"></path>
</svg>