<svg xmlns="http://www.w3.org/2000/svg" width="15.003" height="15.001" viewBox="0 0 15.003 15.001" fill="none">
  <path d="M 15.599 0.82 C 15.989 0.429 15.989 -0.204 15.599 -0.594 C 15.209 -0.985 14.575 -0.985 14.185 -0.594 L 14.892 0.113 L 15.599 0.82 Z M 5.979 7.61 C 5.589 8 5.588 8.633 5.979 9.024 C 6.369 9.414 7.003 9.414 7.393 9.024 L 6.686 8.317 L 5.979 7.61 Z M 9.403 14.766 L 8.474 15.138 L 8.475 15.138 L 9.403 14.766 Z M 10.105 14.748 L 11.051 15.072 L 11.052 15.072 L 10.105 14.748 Z M 14.981 0.498 L 14.04 0.159 L 14.037 0.167 L 14.035 0.175 L 14.981 0.498 Z M 14.505 0.022 L 14.828 0.968 L 14.836 0.966 L 14.844 0.963 L 14.505 0.022 Z M 0.253 4.897 L -0.07 3.951 L -0.071 3.951 L 0.253 4.897 Z M 0.235 5.6 L -0.137 6.528 L -0.137 6.528 L 0.235 5.6 Z M 6.183 7.985 L 5.811 8.913 L 5.812 8.913 L 6.183 7.985 Z M 7.017 8.817 L 7.946 8.445 L 7.945 8.444 L 7.017 8.817 Z M 14.892 0.113 L 14.185 -0.594 L 5.979 7.61 L 6.686 8.317 L 7.393 9.024 L 15.599 0.82 L 14.892 0.113 Z M 9.403 14.766 L 8.475 15.138 C 8.579 15.399 8.761 15.621 8.995 15.775 L 9.545 14.94 L 10.094 14.104 C 10.201 14.174 10.283 14.275 10.331 14.393 L 9.403 14.766 Z M 9.545 14.94 L 8.995 15.775 C 9.23 15.929 9.505 16.008 9.786 16.001 L 9.76 15.001 L 9.735 14.001 C 9.862 13.998 9.988 14.034 10.094 14.104 L 9.545 14.94 Z M 9.76 15.001 L 9.786 16.001 C 10.066 15.994 10.338 15.901 10.564 15.735 L 9.973 14.929 L 9.381 14.122 C 9.484 14.047 9.607 14.005 9.735 14.001 L 9.76 15.001 Z M 9.973 14.929 L 10.564 15.735 C 10.79 15.569 10.96 15.338 11.051 15.072 L 10.105 14.748 L 9.16 14.423 C 9.201 14.303 9.278 14.198 9.381 14.122 L 9.973 14.929 Z M 10.105 14.748 L 11.052 15.072 L 15.927 0.822 L 14.981 0.498 L 14.035 0.175 L 9.159 14.424 L 10.105 14.748 Z M 14.981 0.498 L 15.921 0.838 C 16.01 0.593 16.027 0.328 15.97 0.073 L 14.994 0.291 L 14.018 0.509 C 13.992 0.392 14 0.271 14.04 0.159 L 14.981 0.498 Z M 14.994 0.291 L 15.97 0.073 C 15.913 -0.181 15.785 -0.414 15.601 -0.598 L 14.894 0.109 L 14.187 0.816 C 14.103 0.732 14.044 0.625 14.018 0.509 L 14.994 0.291 Z M 14.894 0.109 L 15.601 -0.598 C 15.417 -0.782 15.184 -0.91 14.93 -0.967 L 14.712 0.009 L 14.494 0.985 C 14.378 0.959 14.271 0.9 14.187 0.816 L 14.894 0.109 Z M 14.712 0.009 L 14.93 -0.967 C 14.675 -1.024 14.41 -1.007 14.165 -0.918 L 14.505 0.022 L 14.844 0.963 C 14.732 1.003 14.611 1.011 14.494 0.985 L 14.712 0.009 Z M 14.505 0.022 L 14.181 -0.924 L -0.07 3.951 L 0.253 4.897 L 0.577 5.843 L 14.828 0.968 L 14.505 0.022 Z M 0.253 4.897 L -0.071 3.951 C -0.336 4.042 -0.568 4.212 -0.734 4.438 L 0.073 5.03 L 0.879 5.621 C 0.803 5.724 0.698 5.802 0.578 5.843 L 0.253 4.897 Z M 0.073 5.03 L -0.734 4.438 C -0.9 4.664 -0.992 4.936 -1 5.216 L 0 5.242 L 1 5.268 C 0.997 5.395 0.954 5.519 0.879 5.621 L 0.073 5.03 Z M 0 5.242 L -1 5.216 C -1.007 5.497 -0.928 5.773 -0.774 6.007 L 0.062 5.458 L 0.897 4.908 C 0.967 5.015 1.003 5.14 1 5.268 L 0 5.242 Z M 0.062 5.458 L -0.774 6.007 C -0.62 6.242 -0.397 6.423 -0.137 6.528 L 0.235 5.6 L 0.608 4.672 C 0.726 4.719 0.827 4.802 0.897 4.908 L 0.062 5.458 Z M 0.235 5.6 L -0.137 6.528 L 5.811 8.913 L 6.183 7.985 L 6.556 7.056 L 0.608 4.672 L 0.235 5.6 Z M 6.183 7.985 L 5.812 8.913 C 5.874 8.938 5.931 8.976 5.979 9.023 L 6.686 8.316 L 7.392 7.608 C 7.153 7.369 6.868 7.182 6.555 7.056 L 6.183 7.985 Z M 6.686 8.316 L 5.979 9.023 C 6.027 9.071 6.065 9.128 6.09 9.19 L 7.017 8.817 L 7.945 8.444 C 7.819 8.131 7.631 7.846 7.392 7.608 L 6.686 8.316 Z M 7.017 8.817 L 6.089 9.189 L 8.474 15.138 L 9.403 14.766 L 10.331 14.394 L 7.946 8.445 L 7.017 8.817 Z" fill="rgb(18,103,233)" fill-rule="nonzero"></path>
</svg>